PathFileType   4   (X/Y/Z)
DataRate	CameraRate	NumFrames	NumMarkers	Units	OrigDataRate	OrigDataStartFrame	OrigNumFrames
120.0	120.0	12	37	mm	120.0	170	194
Frame#	Time	midhip	hip_r	hip_l	knee_r	knee_l	ankle_r	ankle_l	midasis	asis_r	asis_l	psis_r	psis_l	epicondLat_r	epicondLat_l	epicondMed_r	epicondMed_l	malleolusLat_r	malleolusLat_l	malleolusMedv_r	malleolusMedv_l	neck	subclavicle_r	subclavicle_l	sternalnotch	xyphoidprocess	thighwand_r	thighwand_l	upperleg1_r	upperleg1_l	upperleg2_r	upperleg2_l	shankwand_r	shankwand_l	lowerleg1_r	lowerleg1_l	toe_r	toe_l
 	 	X1	Y1	Z1	X2	Y2	Z2	X3	Y3	Z3	X4	Y4	Z4	X5	Y5	Z5	X6	Y6	Z6	X7	Y7	Z7	X8	Y8	Z8	X9	Y9	Z9	X10	Y10	Z10	X11	Y11	Z11	X12	Y12	Z12	X13	Y13	Z13	X14	Y14	Z14	X15	Y15	Z15	X16	Y16	Z16	X17	Y17	Z17	X18	Y18	Z18	X19	Y19	Z19	X20	Y20	Z20	X21	Y21	Z21	X22	Y22	Z22	X23	Y23	Z23	X24	Y24	Z24	X25	Y25	Z25	X26	Y26	Z26	X27	Y27	Z27	X28	Y28	Z28	X29	Y29	Z29	X30	Y30	Z30	X31	Y31	Z31	X32	Y32	Z32	X33	Y33	Z33	X34	Y34	Z34	X35	Y35	Z35	X36	Y36	Z36	X37	Y37	Z37

	170	1.75833	1443.203	676.362	-233.994	1436.278	683.247	-169.024	1435.021	683.078	-294.847	1568.174	388.197	-167.320	1374.760	380.466	-264.860	1671.268	74.443	-138.670	1316.019	62.271	-253.235	1497.627	750.302	-232.645	1498.577	750.430	-137.606	1496.678	750.175	-327.684	1349.955	779.412	-209.773	1348.892	777.168	-264.528	1567.696	388.275	-116.822	1370.373	376.420	-314.503	1564.776	373.666	-214.880	1375.056	383.531	-211.541	1662.817	74.626	-106.253	1310.086	62.124	-287.221	1670.478	84.341	-165.857	1309.592	67.196	-225.039	1395.664	1134.336	-215.802	1470.540	1077.530	-154.595	1467.941	1086.914	-285.180	1461.986	1071.288	-222.851	1468.395	928.009	-232.782	1533.186	466.016	-38.478	1522.256	455.143	-316.466	1540.707	533.560	-107.720	1471.218	526.805	-261.809	1580.996	461.654	-121.281	1439.787	445.210	-246.797	1611.085	171.939	-41.451	1415.005	143.243	-295.584	1608.071	224.984	-104.009	1366.167	210.080	-278.569	1764.979	89.643	-129.239	1406.223	36.978	-261.055
	171	1.76667	1446.878	675.909	-233.635	1440.380	682.586	-168.561	1438.342	682.828	-294.374	1572.033	387.546	-167.093	1376.736	380.528	-264.752	1677.809	74.588	-138.709	1316.324	62.582	-253.337	1501.320	749.862	-232.342	1502.859	749.679	-137.314	1499.781	750.044	-327.370	1353.803	778.860	-208.599	1352.250	776.826	-263.359	1571.627	387.616	-116.595	1371.979	376.635	-314.372	1568.796	373.102	-214.847	1377.236	383.527	-211.508	1669.211	74.618	-106.331	1310.134	62.540	-287.277	1676.801	84.533	-165.963	1310.017	67.677	-225.124	1399.506	1133.887	-214.954	1474.408	1077.173	-153.856	1471.241	1086.222	-284.305	1465.964	1070.982	-222.139	1471.605	927.455	-231.579	1537.354	465.202	-38.271	1524.292	454.753	-317.222	1544.895	532.825	-107.452	1473.847	526.434	-261.988	1585.115	460.990	-121.139	1442.072	444.950	-246.997	1616.297	171.367	-41.503	1415.345	143.151	-296.220	1613.082	224.545	-104.040	1366.939	210.217	-278.751	1771.452	90.186	-129.235	1406.274	36.918	-261.443
	172	1.77500	1450.559	675.490	-233.279	1444.504	681.941	-168.103	1441.654	682.622	-293.898	1575.913	386.896	-166.859	1378.754	380.610	-264.590	1683.755	74.575	-138.724	1316.633	62.927	-253.373	1505.024	749.447	-232.040	1507.177	748.932	-137.017	1502.872	749.961	-327.063	1357.681	778.343	-207.357	1355.582	776.531	-262.127	1575.541	386.943	-116.360	1373.609	376.869	-314.184	1573.144	372.710	-214.748	1379.394	383.574	-211.377	1674.983	74.458	-106.393	1310.193	62.989	-287.266	1682.705	84.550	-166.016	1310.409	68.103	-225.127	1403.393	1133.485	-214.066	1478.365	1076.877	-153.063	1473.568	1084.654	-282.951	1469.910	1070.661	-221.423	1473.251	926.426	-228.977	1541.448	464.353	-38.060	1526.315	454.406	-317.984	1548.981	532.169	-106.978	1476.518	526.133	-262.134	1589.306	460.358	-120.812	1444.316	444.646	-247.121	1621.016	170.699	-41.572	1415.706	143.080	-296.782	1617.762	223.995	-104.139	1367.696	210.365	-278.826	1777.357	90.366	-129.101	1406.327	36.882	-261.775
	173	1.78333	1454.261	675.108	-232.932	1448.652	681.315	-167.658	1444.971	682.461	-293.427	1579.814	386.248	-166.615	1380.821	380.713	-264.369	1689.127	74.396	-138.700	1316.949	63.304	-253.332	1508.747	749.060	-231.743	1511.529	748.194	-136.718	1505.966	749.925	-326.769	1361.593	777.862	-206.047	1358.904	776.279	-260.830	1579.430	386.256	-116.116	1375.270	377.120	-313.930	1577.451	372.554	-214.890	1381.791	383.706	-211.192	1680.166	74.145	-106.422	1310.266	63.471	-287.178	1688.146	84.417	-166.066	1310.769	68.560	-225.065	1407.398	1133.151	-213.131	1482.438	1076.660	-152.263	1478.966	1085.342	-282.909	1473.828	1070.315	-220.677	1479.502	926.723	-229.635	1545.447	463.469	-37.850	1528.333	454.102	-318.744	1553.082	531.576	-106.454	1479.253	525.914	-262.349	1593.484	459.760	-120.559	1446.744	444.519	-247.274	1625.300	169.956	-41.636	1416.095	143.025	-297.256	1622.085	223.356	-104.274	1368.623	210.560	-278.939	1782.720	90.175	-128.879	1406.384	36.871	-262.037
	174	1.79167	1457.996	674.763	-232.599	1452.827	680.710	-167.231	1448.304	682.342	-292.968	1583.735	385.605	-166.359	1382.945	380.835	-264.084	1693.943	74.046	-138.625	1317.273	63.712	-253.210	1512.497	748.699	-231.455	1515.915	747.465	-136.420	1509.078	749.932	-326.491	1365.543	777.419	-204.669	1362.244	776.065	-259.462	1583.291	385.557	-115.861	1376.971	377.386	-313.606	1581.740	372.321	-215.147	1384.320	383.923	-211.056	1684.799	73.681	-106.399	1310.355	63.985	-287.008	1693.064	84.164	-166.079	1311.116	69.080	-224.933	1411.442	1132.838	-212.183	1486.049	1076.076	-151.542	1483.227	1085.388	-282.339	1477.831	1070.001	-219.914	1483.369	926.513	-229.722	1549.345	462.550	-37.637	1530.357	453.838	-319.497	1557.276	530.876	-106.066	1482.067	525.792	-262.615	1597.644	459.108	-120.401	1449.287	444.512	-247.484	1629.226	169.164	-41.666	1416.515	142.981	-297.636	1625.990	222.614	-104.287	1369.585	210.792	-278.950	1787.566	89.617	-128.624	1406.449	36.881	-262.219
	175	1.80000	1461.771	674.451	-232.274	1457.029	680.126	-166.822	1451.663	682.259	-292.518	1587.672	384.965	-166.093	1385.133	380.976	-263.733	1698.225	73.520	-138.491	1317.607	64.152	-253.003	1516.279	748.360	-231.175	1520.338	746.747	-136.124	1512.221	749.973	-326.226	1369.539	777.011	-203.230	1365.637	775.882	-258.023	1587.121	384.846	-115.596	1378.723	377.664	-313.210	1586.065	371.819	-215.146	1386.897	384.148	-210.931	1688.927	73.072	-106.310	1310.464	64.531	-286.753	1697.483	83.754	-166.013	1311.475	69.587	-224.690	1415.417	1132.569	-211.233	1488.826	1074.704	-150.838	1487.083	1085.049	-281.533	1481.935	1069.724	-219.124	1485.188	925.782	-230.175	1553.142	461.599	-37.418	1532.399	453.609	-320.236	1561.248	530.036	-105.725	1484.905	525.793	-262.858	1601.650	458.408	-120.125	1451.828	444.483	-247.671	1632.886	168.353	-41.632	1416.971	142.945	-297.918	1629.500	221.805	-104.234	1370.554	211.048	-278.830	1791.918	88.706	-128.402	1406.524	36.908	-262.317
	176	1.80833	1465.588	674.165	-231.947	1461.259	679.566	-166.422	1455.050	682.204	-292.069	1591.616	384.331	-165.813	1387.393	381.133	-263.316	1701.990	72.814	-138.297	1317.950	64.624	-252.713	1520.099	748.038	-230.897	1524.797	746.042	-135.827	1515.401	750.034	-325.966	1373.584	776.640	-201.734	1369.112	775.724	-256.512	1590.921	384.128	-115.318	1380.536	377.953	-312.741	1590.479	371.186	-214.848	1389.784	384.226	-210.627	1692.592	72.324	-106.146	1310.593	65.109	-286.416	1701.335	83.094	-165.811	1311.909	70.111	-224.309	1419.432	1132.333	-210.240	1494.630	1075.589	-149.736	1491.092	1084.652	-280.738	1486.078	1069.450	-218.333	1491.651	925.875	-227.704	1556.856	460.627	-37.183	1534.472	453.409	-320.952	1564.995	529.184	-105.312	1487.776	525.775	-262.995	1605.541	457.698	-119.645	1454.553	444.437	-247.749	1636.370	167.551	-41.507	1417.467	142.913	-298.103	1632.887	221.004	-104.184	1371.578	211.295	-278.600	1795.792	87.462	-128.280	1406.611	36.946	-262.329
	177	1.81667	1469.443	673.895	-231.602	1465.515	679.030	-166.014	1458.465	682.165	-291.606	1595.552	383.700	-165.522	1389.730	381.303	-262.833	1705.258	71.927	-138.047	1318.303	65.129	-252.347	1523.959	747.725	-230.613	1529.297	745.351	-135.526	1518.621	750.099	-325.700	1377.682	776.305	-200.191	1372.691	775.589	-254.937	1594.692	383.405	-115.030	1382.420	378.252	-312.202	1594.688	370.625	-214.618	1392.790	384.176	-210.156	1695.837	71.444	-105.903	1310.742	65.721	-286.003	1704.571	82.185	-165.486	1312.405	70.686	-223.835	1423.579	1132.102	-209.231	1499.466	1075.743	-148.767	1495.074	1084.251	-279.871	1490.163	1069.113	-217.464	1496.464	925.698	-226.135	1560.517	459.650	-36.924	1536.590	453.229	-321.629	1568.849	528.421	-104.840	1490.597	525.583	-262.994	1609.422	456.895	-119.165	1457.378	444.419	-247.719	1639.764	166.784	-41.272	1418.009	142.882	-298.195	1636.297	220.286	-104.055	1372.672	211.489	-278.170	1799.208	85.913	-128.317	1406.713	36.993	-262.263
	178	1.82500	1473.324	673.634	-231.216	1469.798	678.522	-165.581	1461.905	682.135	-291.110	1599.454	383.069	-165.219	1392.149	381.482	-262.288	1708.052	70.867	-137.754	1318.665	65.671	-251.912	1527.860	747.414	-230.313	1533.840	744.676	-135.214	1521.881	750.151	-325.413	1381.838	776.008	-198.612	1376.381	775.473	-253.308	1598.435	382.684	-114.730	1384.386	378.556	-311.595	1598.061	369.882	-214.409	1395.615	384.203	-209.736	1698.702	70.445	-105.588	1310.912	66.371	-285.523	1707.191	80.997	-165.136	1312.863	71.255	-223.312	1427.830	1131.876	-208.203	1503.354	1075.173	-147.975	1499.048	1083.842	-278.929	1494.264	1068.752	-216.554	1499.696	925.227	-225.445	1564.166	458.693	-36.629	1538.767	453.063	-322.251	1572.799	527.601	-104.373	1493.389	525.340	-262.976	1613.054	455.889	-118.767	1460.121	444.449	-247.692	1643.135	166.068	-40.918	1418.597	142.853	-298.202	1639.788	219.571	-103.746	1373.881	211.703	-277.666	1802.187	84.086	-128.559	1406.829	37.045	-262.133
	179	1.83333	1477.220	673.378	-230.770	1474.105	678.046	-165.103	1465.369	682.106	-290.563	1603.289	382.434	-164.904	1394.651	381.668	-261.682	1710.405	69.654	-137.435	1319.038	66.252	-251.422	1531.804	747.103	-229.986	1538.427	744.025	-134.882	1525.182	750.181	-325.089	1386.049	775.754	-197.006	1380.181	775.380	-251.639	1602.144	381.968	-114.419	1386.444	378.867	-310.924	1601.081	368.811	-213.941	1398.674	384.247	-209.168	1701.231	69.342	-105.217	1311.104	67.062	-284.988	1709.211	79.584	-164.729	1313.308	71.834	-222.744	1432.152	1131.622	-207.082	1506.834	1074.234	-147.216	1503.101	1083.453	-278.004	1498.425	1068.401	-215.620	1502.309	924.629	-225.235	1567.852	457.784	-36.291	1541.019	452.906	-322.796	1576.653	526.671	-103.913	1496.385	525.187	-262.975	1616.530	454.739	-118.303	1463.023	444.401	-247.580	1646.525	165.416	-40.453	1419.235	142.826	-298.132	1643.220	218.811	-103.256	1375.107	211.962	-277.197	1804.766	82.014	-129.027	1406.956	37.105	-261.955
	180	1.84167	1481.127	673.129	-230.249	1478.438	677.610	-164.566	1468.860	682.078	-289.950	1607.014	381.791	-164.578	1397.236	381.862	-261.019	1712.369	68.325	-137.112	1319.423	66.875	-250.890	1535.791	746.794	-229.619	1543.055	743.405	-134.524	1528.527	750.183	-324.714	1390.313	775.550	-195.384	1384.079	775.316	-249.946	1605.811	381.265	-114.095	1388.601	379.183	-310.195	1604.275	367.776	-213.442	1401.807	384.285	-208.305	1703.475	68.165	-104.815	1311.322	67.798	-284.413	1710.667	78.055	-164.249	1313.905	72.511	-222.131	1436.529	1131.390	-205.883	1510.861	1073.589	-146.293	1507.215	1083.101	-277.045	1502.550	1068.021	-214.691	1505.676	924.172	-224.621	1571.620	456.955	-35.905	1543.360	452.756	-323.243	1580.540	525.804	-103.413	1499.540	525.024	-262.902	1620.151	453.593	-117.825	1465.959	444.168	-247.256	1649.949	164.830	-39.897	1419.922	142.806	-297.992	1646.383	218.079	-102.608	1376.322	212.188	-276.614	1806.996	79.732	-129.720	1407.091	37.175	-261.752
	181	1.85000	1485.045	672.899	-229.645	1482.795	677.226	-163.958	1472.384	682.055	-289.263	1610.590	381.139	-164.239	1399.901	382.064	-260.300	1714.015	66.930	-136.807	1319.823	67.544	-250.328	1539.822	746.497	-229.204	1547.721	742.833	-134.130	1531.923	750.162	-324.278	1394.626	775.403	-193.756	1388.060	775.289	-248.245	1609.420	380.586	-113.756	1390.865	379.506	-309.410	1607.315	366.910	-213.140	1404.631	384.480	-207.490	1705.491	66.953	-104.410	1311.571	68.584	-283.811	1711.528	76.335	-163.766	1314.625	73.212	-221.486	1440.936	1131.223	-204.645	1515.504	1073.304	-145.309	1511.356	1082.752	-276.010	1506.734	1067.669	-213.736	1509.823	923.852	-223.520	1575.511	456.238	-35.471	1545.803	452.614	-323.569	1584.648	524.901	-102.829	1502.722	524.840	-262.808	1623.850	452.496	-117.433	1468.742	443.932	-246.896	1653.397	164.310	-39.283	1420.660	142.799	-297.787	1649.420	217.261	-101.855	1377.664	212.386	-275.919	1808.950	77.284	-130.612	1407.228	37.259	-261.543
